<svg t="1606787455875" class="icon" viewBox="0 0 1024 1024" version="1.1" xmlns="http://www.w3.org/2000/svg" p-id="3086" width="128" height="128"><path d="M379.4 673h159.8c14.7 0 26.6-11.9 26.6-26.6 0-14.7-11.9-26.6-26.6-26.6H379.4c-14.7 0-26.6 11.9-26.6 26.6 0 14.7 11.9 26.6 26.6 26.6z m0-133.1h266.3c14.7 0 26.6-11.9 26.6-26.6 0-14.7-11.9-26.6-26.6-26.6H379.4c-14.7 0-26.6 11.9-26.6 26.6 0 14.6 11.9 26.6 26.6 26.6z m0-133.2h266.3c14.7 0 26.6-11.9 26.6-26.6s-11.9-26.6-26.6-26.6H379.4c-14.7 0-26.6 11.9-26.6 26.6s11.9 26.6 26.6 26.6z m399.4-266.2H246.3c-29.4 0-53.3 23.8-53.3 53.3v639c0 29.4 23.8 53.3 53.3 53.3h532.5c29.4 0 53.3-23.8 53.3-53.3v-639c-0.1-29.5-23.9-53.3-53.3-53.3z m0 692.3H246.3v-639h532.5v639z" fill="#1296db" p-id="3087"></path></svg>