<?xml version="1.0" standalone="no"?><!DOCTYPE svg PUBLIC "-//W3C//DTD SVG 1.1//EN" "http://www.w3.org/Graphics/SVG/1.1/DTD/svg11.dtd"><svg t="1606788537499" class="icon" viewBox="0 0 1110 1024" version="1.1" xmlns="http://www.w3.org/2000/svg" p-id="3941" xmlns:xlink="http://www.w3.org/1999/xlink" width="138.75" height="128"><defs><style type="text/css"></style></defs><path d="M1034.54397441 280.00257119c-1.9774626 5.99576748-6.09717656 18.32955645-12.35914102 37.00136689a3922.70262187 3922.70262187 0 0 1-21.28307431 61.4914796 8690.3902081 8690.3902081 0 0 0-23.24786132 66.51119268 1981.02452871 1981.02452871 0 0 0-17.31547354 51.9971247c-8.56900459 26.65771612-19.4577249 45.16473779-32.64080801 55.49571211-13.19575957 10.33097432-29.35771348 15.50279971-48.48586084 15.50279971H359.79825605l14.84364551 89.99989804h498.63746602c31.66475273 0 47.49712998 13.66477295 47.49712998 40.99432061 0 13.33519628-3.14365869 24.8323667-9.40562402 34.50418593-6.26196445 9.67182012-18.63378193 14.50139239-37.1027751 14.50139239H355.84333086c-13.19575957 0-24.23659219-3.00422198-33.1478499-8.99998945a75.4731545 75.4731545 0 0 1-22.2591296-23.50138272 144.354767 144.354767 0 0 1-14.34928007-31.49996397 291.02924971 291.02924971 0 0 1-8.40421582-31.99433027c-0.6591542-4.0056293-2.47182803-13.67744942-5.43802237-29.00278388a7973.10369229 7973.10369229 0 0 1-10.88871943-57.49852676l-14.34928008-77.00695576c-5.27323359-28.3309541-10.54646719-56.83937256-15.8196999-85.49990333a46017.58195195 46017.58195195 0 0 0-42.54079746-224.99974687H114.44078604c-9.89998857 0-18.13941651-2.49718008-24.74363409-7.5042167a64.79992705 64.79992705 0 0 1-16.3140662-17.99997979 69.46471055 69.46471055 0 0 1-8.91125773-22.49997451A109.64776377 109.64776377 0 0 1 62 108.00135635c0-13.33519628 4.44929063-24.33800039 13.36054834-32.9957376C84.25912959 66.33520596 96.30136953 62 111.46191612 62h99.93791513c13.18308398 0 23.74222676 2.00281465 31.65207715 5.99576748 7.92252598 4.0056293 14.18449131 8.99998945 18.79857071 15.00843428a58.30979326 58.30979326 0 0 1 9.89998857 18.98871064c1.9774626 6.66759815 3.62534766 12.33378896 4.94365693 17.01124893 1.3183084 5.32393769 2.6366168 12.8281544 3.9549252 22.49997451 1.3183084 9.65914365 2.6366168 19.49575253 3.95492431 29.4971502 1.9774626 12.00421143 3.95492519 24.66757793 5.9323878 38.00277334h676.73585742c18.46899317 0 32.80559677 2.49718008 43.03516289 7.49154111 10.21688964 5.00703662 17.48026231 11.16759287 21.76476415 18.50702168a42.33798018 42.33798018 0 0 1 5.9323878 23.48870537c-0.32957666 8.34083526-1.48309717 15.50279971-3.46055976 21.51124365zM723.91756396 129.49992354h237.76452071l42.71826181 44.9999499H681.19930214l42.71826182-44.9999499zM531.73609033 62h237.76452071l42.71826182 44.99994903H489.01782852L531.73609033 62z m113.65339307 112.49987344H322.20111553l42.71826181-44.9999499h237.75184424l42.71826181 44.9999499z m-321.21090528 627.00774434a95.53932862 95.53932862 0 0 1 29.19292471-19.50842901c10.87604385-4.66478349 22.91828379-6.9971748 36.10136777-6.99717568a91.77454424 91.77454424 0 0 1 35.61967794 6.99717568 93.90411914 93.90411914 0 0 1 29.68729101 19.50842901 85.62666445 85.62666445 0 0 1 19.78730157 29.49714931c4.6140794 11.33238164 6.92111865 23.32391748 6.92111865 35.98728398 0 12.67604209-2.30703925 24.68025352-6.92111865 36.01263516a85.74074824 85.74074824 0 0 1-19.78730157 29.4971502 101.82664599 101.82664599 0 0 1-29.68729101 20.00279355 86.5266627 86.5266627 0 0 1-35.61967794 7.49154111c-13.18308398 0-25.22532393-2.49718008-36.10136777-7.49154111a103.99424942 103.99424942 0 0 1-29.1929247-20.00279355 85.74074824 85.74074824 0 0 1-19.78730157-29.4971502 94.5759498 94.5759498 0 0 1-6.92111953-36.01263516c0-12.66336563 2.30703925-24.65490146 6.92111953-35.98728398a85.62666445 85.62666445 0 0 1 19.78730157-29.49714931z m412.07277481 1.99013818a88.46609766 88.46609766 0 0 1 29.18024912-19.49575254 91.86327685 91.86327685 0 0 1 35.61967793-6.99717569 95.45059688 95.45059688 0 0 1 36.11404336 6.99717569 87.21116894 87.21116894 0 0 1 29.68729101 19.49575254 96.36327158 96.36327158 0 0 1 19.78730157 29.50982578c4.94365605 11.33238164 7.41548497 23.32391748 7.41548496 35.99995957a89.11257539 89.11257539 0 0 1-7.41548496 35.99995957 96.09707461 96.09707461 0 0 1-19.78730157 29.48447373 93.59989453 93.59989453 0 0 1-29.68729101 20.01547002c-11.53519805 4.99436016-23.57743799 7.49154112-36.11404336 7.49154112a86.61539531 86.61539531 0 0 1-35.61967793-7.49154112 95.24777959 95.24777959 0 0 1-29.18024912-20.01547002 96.09707461 96.09707461 0 0 1-19.78730157-29.48447373 89.11257539 89.11257539 0 0 1-7.41548495-35.99995957c0-12.67604209 2.47182803-24.66757793 7.41548495-35.99995957 4.94365605-11.33238164 11.54787451-21.16899052 19.78730157-29.50982578z" p-id="3942" fill="#1296db"></path></svg>